<?xml version="1.0" encoding="UTF-8" standalone="no"?>
<!-- Created with Inkscape (http://www.inkscape.org/) -->

<svg
   version="1.1"
   id="svg9"
   width="853.33331"
   height="640"
   viewBox="0 0 853.33331 640"
   xmlns="http://www.w3.org/2000/svg"
   xmlns:svg="http://www.w3.org/2000/svg">
  <defs
     id="defs13" />
  <g
     id="g15">
    <path
       style="fill:#000000;fill-opacity:1;stroke:#000000;stroke-width:0.786241;stroke-opacity:0"
       d="M -0.1018488,319.89815 V 1.0775189 H 426.8269 853.75564 V 319.89815 638.71879 H 426.8269 -0.1018488 Z M 438.16036,633.50442 c 7.54706,-1.92431 14.39578,-5.73892 20.42619,-11.37702 9.88731,-9.24408 14.69719,-19.82031 14.80256,-32.54866 0.11049,-13.34576 -3.86509,-22.96995 -13.51364,-32.71418 -4.70526,-4.75191 -7.2975,-6.63506 -12.60631,-9.15787 -8.43021,-4.00616 -13.33593,-5.12804 -22.33133,-5.10689 -13.28501,0.0312 -24.11654,4.38693 -33.81241,13.59707 -9.48917,9.01378 -14.12598,19.71319 -14.12598,32.59563 0,11.88791 4.51746,23.12007 12.64792,31.44758 12.63521,12.94144 30.55904,17.84215 48.513,13.26434 z m -242.65167,0.0518 c 9.58058,-1.94662 18.24552,-6.54732 24.85479,-13.19679 6.47356,-6.51293 10.07487,-12.79444 12.28125,-21.42131 5.4371,-21.25889 -5.36145,-42.99224 -26.11476,-52.55901 -7.68231,-3.54136 -13.74248,-4.62301 -23.57815,-4.20834 -6.09534,0.25697 -9.54493,0.85099 -13.85999,2.38671 -19.01199,6.76631 -31.60154,23.96938 -31.60154,43.18213 0,12.23776 3.88912,22.35496 11.8751,30.89199 12.23349,13.07764 28.82389,18.44366 46.1433,14.92463 z M 559.7118,633.1594 c 20.6965,-5.73529 35.29302,-24.24295 35.35698,-44.83084 0.0183,-5.88794 -2.51165,-15.44314 -5.66729,-21.40455 -1.41603,-2.67505 -5.05125,-7.37605 -8.07828,-10.44666 -19.25957,-19.53693 -51.52328,-19.0194 -70.5325,1.13137 -8.44987,8.95731 -12.38978,18.74535 -12.40657,30.822 -0.0158,11.37717 3.90473,21.82115 11.41364,30.40496 5.82444,6.65821 16.67512,12.96895 25.92347,15.07705 5.98092,1.36331 17.67783,0.99601 23.99055,-0.75333 z m 239.80345,0 c 20.69645,-5.73529 35.29301,-24.24295 35.35694,-44.83084 0.0181,-5.88794 -2.51165,-15.44314 -5.66723,-21.40455 -1.4161,-2.67505 -5.05128,-7.37605 -8.07831,-10.44666 -19.2596,-19.53693 -51.52328,-19.0194 -70.5325,1.13137 -8.44987,8.95731 -12.38978,18.74535 -12.40657,30.822 -0.0158,11.37717 3.90473,21.82115 11.41364,30.40496 5.82444,6.65821 16.67512,12.96895 25.92347,15.07705 5.98092,1.36331 17.67783,0.99601 23.99056,-0.75333 z m -479.60689,-0.78624 c 20.6965,-5.73529 35.29302,-24.24295 35.35698,-44.83084 0.0183,-5.88794 -2.51165,-15.44314 -5.66729,-21.40455 -1.41603,-2.67505 -5.05125,-7.37605 -8.07828,-10.44666 -19.25957,-19.53693 -51.52328,-19.0194 -70.53249,1.13136 -8.44988,8.95732 -12.38979,18.74536 -12.40658,30.82201 -0.0158,11.37717 3.90473,21.82115 11.41364,30.40496 5.82444,6.65821 16.67512,12.96895 25.92347,15.07705 5.98092,1.36331 17.67783,0.99601 23.99055,-0.75333 z M 80.880951,630.94344 c 15.3376,-4.8556 27.929259,-17.81794 31.820429,-32.75717 1.75333,-6.73152 1.565,-17.87986 -0.41008,-24.27443 -6.11732,-19.80558 -25.077329,-33.4984 -46.333119,-33.46153 -13.86485,0.0241 -25.02833,4.57012 -34.68945,14.12647 -18.42744,18.2276 -18.56171,45.66171 -0.31407,64.17212 6.26383,6.35403 15.23491,11.32805 23.98035,13.29592 6.9104,1.55494 19.20364,1.03312 25.94594,-1.10138 z m 597.022959,1.02333 c 30.7755,-7.97474 44.99459,-41.2674 29.22517,-68.42799 -3.81478,-6.57041 -12.0081,-13.94286 -19.41156,-17.46674 -8.56071,-4.07471 -13.57981,-5.21639 -22.65966,-5.15432 -14.0479,0.096 -24.84123,4.59416 -34.5946,14.41733 -11.58474,11.66767 -16.06569,27.48399 -12.11976,42.77885 2.90162,11.24697 11.66715,22.79511 21.82792,28.75718 10.10947,5.93196 26.14698,8.09779 37.73249,5.09569 z M 435.27614,527.40074 c 22.50009,-4.64752 38.17672,-23.19329 38.10362,-45.07737 -0.0446,-13.34683 -4.02316,-22.90483 -13.43528,-32.27637 -9.64628,-9.60471 -20.78104,-14.14265 -34.76086,-14.16671 -12.79629,-0.022 -23.88565,4.15837 -33.06387,12.46418 -24.81864,22.45958 -18.43206,61.51878 12.36902,75.64672 9.60672,4.40645 20.25303,5.58548 30.78737,3.40955 z m 123.9653,-0.85873 c 28.66507,-7.10138 43.81606,-38.60343 31.05793,-64.57584 -5.47395,-11.14361 -16.15334,-20.22439 -28.46352,-24.2028 -5.26822,-1.70258 -7.98015,-2.09268 -14.71411,-2.11655 -14.78955,-0.0524 -25.31969,4.21802 -35.45415,14.37827 -9.15063,9.17391 -13.29278,19.09513 -13.29278,31.83866 0,12.70949 4.17442,22.66105 13.36049,31.85058 12.68932,12.69409 29.60647,17.26209 47.50614,12.82768 z m 239.8034,0 c 28.66508,-7.10138 43.8161,-38.60343 31.05793,-64.57584 -5.47389,-11.14361 -16.15332,-20.22439 -28.46349,-24.2028 -5.26821,-1.70258 -7.98011,-2.09268 -14.7141,-2.11655 -14.78955,-0.0524 -25.31969,4.21802 -35.45415,14.37827 -9.15063,9.17391 -13.29278,19.09513 -13.29278,31.83866 0,12.70949 4.17442,22.66105 13.36049,31.85058 12.68932,12.69409 29.60647,17.26209 47.5061,12.82768 z m -601.4606,-0.24198 c 8.69727,-2.22439 15.47111,-5.82956 21.52309,-11.45502 19.30953,-17.94867 19.99362,-46.78699 1.54562,-65.1559 -6.78411,-6.75501 -13.83174,-10.88655 -22.23778,-13.03645 -26.07649,-6.66924 -53.23408,8.5452 -59.7232,33.4586 -1.51306,5.80904 -1.53345,16.72562 -0.0418,22.3311 6.70756,25.20477 33.21757,40.43483 58.93398,33.85767 z M 319.438,525.75577 c 28.66507,-7.10138 43.81606,-38.60343 31.05793,-64.57584 -5.47395,-11.14361 -16.15334,-20.2244 -28.46352,-24.20281 -5.26821,-1.70257 -7.98015,-2.09267 -14.71411,-2.11654 -14.78955,-0.0524 -25.31969,4.21802 -35.45415,14.37827 -9.15063,9.17391 -13.29278,19.09513 -13.29278,31.83866 0,12.70949 4.17442,22.66105 13.36049,31.85058 12.68932,12.69409 29.60647,17.26209 47.50614,12.82768 z m 360.27138,-1.10906 c 23.89303,-7.27903 38.1252,-30.48987 32.95232,-53.74098 -3.12677,-14.05422 -11.97231,-25.20044 -25.20942,-31.76627 -14.27519,-7.08074 -33.7092,-6.46218 -47.28801,1.50508 -6.56935,3.85453 -14.26301,11.86315 -17.69386,18.41823 -9.57314,18.2907 -6.53462,38.482 7.99285,53.11347 8.02373,8.08115 16.8175,12.48901 28.69779,14.38473 4.4955,0.71733 15.17634,-0.27768 20.54833,-1.91426 z m -599.221549,-0.2998 c 20.950839,-7.33754 33.415229,-23.7245 33.415229,-43.93104 0,-3.99493 -0.52776,-9.28974 -1.17281,-11.76623 -6.3064,-24.21195 -31.828589,-39.31165 -57.402119,-33.96085 -16.78106,3.51114 -31.43148,16.70556 -36.06351,32.47943 -7.19561,24.50381 8.00984,50.70472 33.40289,57.55743 7.32189,1.97592 21.6542,1.78081 27.82032,-0.37874 z M 200.38955,419.44467 c 15.3376,-4.8556 27.92926,-17.81794 31.82043,-32.75717 0.66092,-2.53747 1.20168,-7.88216 1.20168,-11.8771 0,-20.20603 -12.50284,-36.64062 -33.41523,-43.92324 -5.78992,-2.01631 -19.0402,-2.43213 -25.94595,-0.81424 -16.65042,3.90089 -30.20844,16.341 -35.18322,32.28223 -2.3898,7.65792 -2.32777,19.15476 0.14211,26.33907 2.67348,7.77655 6.09307,13.23225 11.89922,18.98434 6.04264,5.98638 15.19663,10.99121 23.53502,12.86748 6.9104,1.55495 19.20364,1.03313 25.94594,-1.10137 z m 597.96749,1.08048 c 16.63253,-4.22792 30.33474,-17.47706 34.58264,-33.43906 0.62766,-2.35877 1.14548,-7.48707 1.15059,-11.39621 0.0181,-13.44252 -3.75587,-22.30422 -13.71346,-32.20451 -10.13543,-10.0771 -20.01147,-14.07713 -34.63099,-14.02628 -7.14567,0.0249 -9.74172,0.38748 -14.93858,2.08666 -18.67708,6.10676 -31.41334,21.76817 -33.04737,40.63741 -0.67345,7.77683 1.02582,15.7933 5.0993,24.05641 5.62081,11.40194 18.14563,21.24713 30.99777,24.36594 5.73613,1.39197 18.87754,1.34887 24.5001,-0.0804 z m -479.60688,-0.78624 c 16.67416,-4.2385 30.32413,-17.4371 34.58261,-33.43906 0.62772,-2.35877 1.14551,-7.48707 1.15064,-11.39622 0.0176,-13.44251 -3.75588,-22.30422 -13.71347,-32.2045 -10.13544,-10.0771 -20.01152,-14.07713 -34.631,-14.02628 -7.14567,0.0248 -9.74172,0.38747 -14.93858,2.08666 -18.67708,6.10675 -31.41334,21.76817 -33.04736,40.63741 -0.67346,7.77683 1.02581,15.7933 5.09929,24.05641 5.62082,11.40194 18.14563,21.24712 30.99777,24.36594 5.73613,1.39197 18.87756,1.34887 24.5001,-0.0804 z m 362.75057,-1.30959 c 8.18432,-2.5034 14.15468,-6.0746 20.12963,-12.04062 11.22234,-11.20558 15.96966,-26.46772 12.88983,-41.43957 -1.23425,-6.00001 -6.33015,-16.08993 -10.52282,-20.83528 -15.91088,-18.0082 -44.28146,-21.51469 -64.52496,-7.97502 -7.46986,4.99616 -12.27893,10.4914 -16.06211,18.35392 -6.51633,13.54276 -6.4771,25.79589 0.12686,39.62588 9.89672,20.72564 35.11091,31.30082 57.96357,24.31069 z m -603.447109,0.16136 c 9.01304,-2.30515 14.89111,-5.74266 22.167459,-12.96357 4.60334,-4.56826 7.04794,-7.75357 8.82466,-11.49855 8.84146,-18.636 5.41714,-38.22688 -9.19655,-52.6145 -15.019309,-14.78698 -37.137559,-18.26018 -56.673999,-8.89945 -7.83332,3.75328 -17.51931,13.24669 -21.11864,20.69877 -7.95437,16.46882 -6.22503,33.91134 4.79405,48.35381 11.41213,14.95765 32.12366,21.80317 51.20302,16.92349 z m 359.669579,-0.0414 c 3.16478,-0.877 7.58027,-2.51784 9.81221,-3.6463 27.40594,-13.85636 34.20181,-49.05686 13.77483,-71.34931 -5.90677,-6.4462 -11.88749,-10.38285 -20.29628,-13.35949 -6.04882,-2.14123 -7.6573,-2.37803 -16.15266,-2.37803 -8.49537,0 -10.10385,0.2368 -16.15267,2.37803 -8.40879,2.97664 -14.38951,6.91329 -20.29628,13.35949 -17.68611,19.30127 -15.19976,49.7634 5.37826,65.89309 12.41771,9.7334 29.14749,13.19969 43.93259,9.10252 z m 118.63402,0.35022 c 18.13859,-3.74664 32.31839,-16.81923 36.76615,-33.89536 1.74092,-6.68383 1.52401,-17.79652 -0.475,-24.33522 -7.48411,-24.48037 -33.39525,-38.35071 -59.27706,-31.73127 -15.8202,4.04613 -28.77322,16.31546 -33.61953,31.84501 -2.3898,7.65791 -2.32777,19.15475 0.14211,26.33906 4.24554,12.34931 12.51489,21.90949 23.74857,27.45566 10.91047,5.38662 21.06575,6.72828 32.71476,4.32212 z M 440.28518,312.74584 c 7.81503,-2.46878 16.87294,-8.47684 21.91617,-14.5369 19.30528,-23.19765 11.98055,-56.7728 -15.38818,-70.53646 -6.96558,-3.50297 -13.18474,-4.87507 -22.09674,-4.87507 -14.41443,0 -25.15745,4.34497 -34.83102,14.08726 -9.31021,9.37635 -13.38673,19.21639 -13.36859,32.26958 0.0177,12.70977 4.05538,22.30242 13.28908,31.57162 7.98016,8.01087 16.91692,12.46345 28.76547,14.33192 4.80421,0.75759 15.65382,-0.39761 21.71381,-2.31195 z m -241.46811,0.0344 c 8.79229,-2.67216 14.28377,-5.97364 20.84427,-12.53161 11.60124,-11.59676 16.07477,-25.97576 12.89325,-41.44196 -2.27909,-11.07927 -10.54172,-22.86918 -20.37478,-29.07271 -8.67194,-5.47098 -16.43906,-7.67455 -27.15333,-7.70352 -15.44092,-0.0417 -29.8365,6.82992 -38.62423,18.43715 -4.7056,6.21538 -6.34504,9.56895 -8.17416,16.72074 -2.79841,10.94164 -1.83501,19.94196 3.28195,30.66071 6.36945,13.34245 19.78085,23.45908 34.60728,26.10535 5.75741,1.02759 17.44431,0.42309 22.69975,-1.17415 z m 359.164,0.81421 c 14.01969,-3.30519 26.09889,-13.08598 32.02598,-25.93213 8.22191,-17.81983 4.85951,-36.64182 -9.07696,-50.81099 -9.86618,-10.03093 -20.45206,-14.38249 -34.98771,-14.38249 -14.22138,0 -24.83387,4.30157 -34.67729,14.05576 -11.69499,11.58899 -16.15963,27.41811 -12.15248,43.08591 1.82912,7.15179 3.46856,10.50536 8.17416,16.72073 6.05436,7.99688 16.73264,14.90707 26.82395,17.35844 5.54795,1.34771 17.95984,1.29819 23.87035,-0.0952 z m 239.80343,0 c 14.0197,-3.30519 26.09887,-13.08598 32.02602,-25.93213 8.22188,-17.81983 4.85952,-36.64182 -9.07699,-50.81099 -9.86614,-10.03093 -20.45209,-14.38249 -34.98771,-14.38249 -14.22139,0 -24.83387,4.30157 -34.67729,14.05576 -11.69499,11.58899 -16.15963,27.41811 -12.15248,43.08591 1.82912,7.15179 3.46856,10.50536 8.17416,16.72073 6.05436,7.99688 16.73264,14.90707 26.82395,17.35844 5.54795,1.34771 17.95985,1.29819 23.87034,-0.0952 z m -479.60687,-0.78624 c 14.01969,-3.30519 26.09889,-13.08598 32.02598,-25.93213 8.22191,-17.81984 4.85951,-36.64182 -9.07696,-50.81099 -9.86618,-10.03093 -20.45206,-14.38249 -34.98771,-14.38249 -14.22138,0 -24.83387,4.30157 -34.67729,14.05576 -11.69499,11.58899 -16.15963,27.41811 -12.15248,43.08591 1.82912,7.15179 3.46856,10.50536 8.17416,16.72073 6.05436,7.99688 16.73264,14.90707 26.82395,17.35844 5.54795,1.34771 17.95984,1.29819 23.87035,-0.0952 z m 359.06696,-0.84511 c 16.22571,-3.82695 30.37091,-17.64668 34.57227,-33.77679 1.53566,-5.89578 1.53944,-15.99273 0.008,-22.00499 -3.25484,-12.78015 -12.82516,-24.40057 -24.75251,-30.05481 -8.7707,-4.15782 -13.67526,-5.24794 -23.1941,-5.1553 -22.19315,0.21601 -40.6626,14.39168 -46.0144,35.31696 -1.97271,7.71325 -1.96769,14.17015 0.0171,21.93048 6.48089,25.34007 32.43792,40.09503 59.36342,33.74445 z M 77.256791,311.66464 c 9.11172,-2.33039 16.47728,-6.49976 22.887059,-12.95551 9.22681,-9.29299 13.27697,-19.0187 13.27697,-31.88223 0,-13.08858 -4.03502,-22.61303 -13.66227,-32.24911 -8.879609,-8.88776 -18.624049,-13.19188 -31.526459,-13.92523 -23.18167,-1.31762 -43.40365,12.62645 -49.78153,34.32687 -1.65921,5.64538 -1.65921,18.04956 0,23.69494 7.28673,24.79272 33.45611,39.47373 58.80623,32.99027 z M 437.04803,208.20717 c 16.42201,-3.85895 30.27223,-16.88014 35.07693,-32.97732 2.07022,-6.93589 1.86997,-18.86585 -0.42894,-25.55283 -4.24691,-12.35332 -12.51814,-21.91417 -23.74856,-27.45134 -28.11594,-13.86262 -61.01403,-0.0225 -69.46001,29.22166 -1.53964,5.33096 -1.72796,16.54594 -0.37328,22.22851 1.50656,6.31964 6.05888,14.82772 10.64568,19.89629 6.28006,6.9397 16.46944,12.83921 25.88032,14.98435 5.01109,1.14225 16.8455,0.95775 22.40786,-0.34932 z m -240.43182,-0.41455 c 2.29155,-0.46885 7.40817,-2.40759 11.37027,-4.30832 15.24089,-7.31149 24.7628,-21.18213 25.97069,-37.83171 1.5684,-21.61891 -12.70878,-41.30553 -34.74698,-47.91211 -6.47897,-1.94225 -20.25322,-1.94225 -26.73219,0 -16.69857,5.00588 -29.6291,17.98376 -33.77421,33.89791 -1.42447,5.4689 -1.57297,14.33287 -0.33861,20.21123 1.21425,5.78259 5.33356,14.39528 9.21781,19.27267 5.83779,7.33043 16.44078,14.00973 25.86424,16.29307 5.53,1.33993 17.51037,1.53501 23.16898,0.37726 z m 120.5301,-0.32639 c 17.92684,-3.75087 32.9344,-18.12889 37.02348,-35.47041 2.33246,-9.89185 0.43582,-23.31291 -4.47989,-31.7007 -6.86831,-11.71954 -17.60157,-19.77364 -30.93974,-23.21678 -5.4487,-1.40654 -16.60635,-1.58292 -22.59709,-0.35722 -2.29156,0.46886 -7.4308,2.41861 -11.42054,4.33278 -16.35642,7.8474 -26.16116,23.38948 -26.16116,41.4696 0,11.10771 4.05659,21.37032 11.77808,29.79697 12.12135,13.22832 29.3347,18.7994 46.79686,15.14576 z M 78.847281,205.7897 c 15.31575,-3.90511 28.735709,-16.58588 33.589389,-31.73922 2.27194,-7.09306 2.27194,-18.85288 0,-25.94594 -4.89701,-15.28862 -18.056919,-27.64299 -33.982509,-31.9024 -6.64554,-1.77739 -18.37849,-1.77726 -25.0246,2.7e-4 -8.96107,2.39668 -14.85903,5.81803 -21.7884,12.63923 -9.94302,9.78782 -13.97148,19.26272 -13.87291,32.62899 0.0954,12.93888 4.79471,23.48884 14.57147,32.71314 12.42749,11.72524 29.41427,15.96428 46.50756,11.60593 z m 597.465269,0.90657 c 9.21865,-1.95331 16.59143,-6.07274 23.80292,-13.29951 6.97105,-6.98582 10.35019,-12.81014 12.59244,-21.70445 1.70363,-6.7578 1.13294,-18.12869 -1.25182,-24.94229 -3.40903,-9.74009 -11.18526,-19.09371 -20.62885,-24.8134 -13.96409,-8.4576 -32.89337,-9.08594 -47.87831,-1.58927 -6.40712,3.20534 -15.03739,10.92433 -18.8407,16.85127 -8.34927,13.01121 -9.16438,29.86813 -2.15834,44.63529 3.53019,7.44082 13.12762,16.84436 21.22511,20.79631 10.28447,5.01928 21.90778,6.44549 33.13755,4.06605 z M 558.5536,205.86293 c 20.984,-5.41686 35.03343,-21.85074 36.27083,-42.4267 0.80389,-13.36738 -3.64364,-24.80114 -13.46915,-34.62665 -9.71606,-9.71606 -20.33163,-14.02996 -34.62666,-14.07141 -9.56346,-0.0277 -14.31812,1.06452 -23.15008,5.31811 -7.03534,3.38831 -16.83197,13.15639 -20.27209,20.21299 -8.89269,18.24132 -5.6419,38.52042 8.43082,52.59313 5.94831,5.94832 15.11885,11.17002 22.94218,13.06327 5.89894,1.42755 18.22651,1.39515 23.87415,-0.0627 z m 239.80344,0 c 20.98398,-5.41686 35.0334,-21.85074 36.27086,-42.4267 0.80385,-13.36738 -3.64368,-24.80114 -13.46917,-34.62665 -9.71605,-9.71606 -20.33164,-14.02996 -34.62667,-14.07141 -9.56346,-0.0277 -14.31812,1.06452 -23.15008,5.31811 -7.03534,3.38831 -16.83197,13.15639 -20.27209,20.21299 -8.89269,18.24132 -5.6419,38.52042 8.43082,52.59313 5.94831,5.94832 15.11885,11.17002 22.94218,13.06327 5.89894,1.42755 18.2265,1.39515 23.87415,-0.0627 z M 437.23999,99.40906 c 29.6635,-7.586641 44.29048,-38.195511 31.15281,-65.191281 -3.13566,-6.44324 -11.28907,-15.07688 -17.92342,-18.97907 -8.33996,-4.90541 -15.34406,-6.69834 -26.0012,-6.65589 -7.99195,0.0318 -9.82176,0.31118 -15.75955,2.40584 -35.20759,12.42011 -43.39262,55.81931 -14.92977,79.16154 11.57294,9.490901 28.47498,13.091671 43.46113,9.258861 z m 119.11723,0.2767 c 22.31148,-4.608571 38.03549,-23.040061 38.13512,-44.701511 0.0605,-13.164 -4.15176,-23.37737 -13.46677,-32.65223 -9.64629,-9.60471 -20.78105,-14.14266 -34.76087,-14.16672 -12.79628,-0.022 -23.88565,4.15837 -33.06387,12.46418 -24.80357,22.44595 -18.49457,61.25157 12.29929,75.650761 9.35918,4.37634 20.30735,5.58463 30.8571,3.40552 z m 239.80346,0 c 22.31147,-4.608571 38.0355,-23.040061 38.13511,-44.701511 0.0605,-13.164 -4.15174,-23.37737 -13.46681,-32.65223 -9.64623,-9.60471 -20.78105,-14.14266 -34.7608,-14.16672 -12.79633,-0.022 -23.88569,4.15837 -33.06391,12.46418 -24.80357,22.44595 -18.49457,61.25157 12.29929,75.650761 9.35918,4.37634 20.30734,5.58463 30.85712,3.40552 z M 198.83287,98.52089 c 8.40253,-2.31881 15.22019,-6.384211 21.7298,-12.957561 9.02308,-9.11144 12.96991,-18.77837 13.01365,-31.87418 0.066,-19.76448 -13.03923,-37.26002 -32.732,-43.69733 -5.34316,-1.74661 -7.7871,-2.07979 -15.39334,-2.09852 -7.70489,-0.019 -9.97178,0.28518 -15.3317,2.05714 -10.58105,3.49805 -19.20843,9.84753 -25.07768,18.45639 -12.93129,18.9673 -9.99809,43.41807 7.09672,59.15717 9.14537,8.4201 19.77712,12.467361 32.93534,12.537721 5.64415,0.0302 9.54591,-0.4181 13.75921,-1.58083 z m 117.72091,0.37863 c 22.53667,-4.655081 38.17683,-23.157721 38.10362,-45.077371 -0.0446,-13.34683 -4.02316,-22.90483 -13.43527,-32.27638 -9.64629,-9.60471 -20.78105,-14.14265 -34.76087,-14.16671 -12.79628,-0.022 -23.88564,4.15837 -33.06387,12.46418 -24.80357,22.44595 -18.49457,61.25156 12.29929,75.65076 9.35918,4.376341 20.30735,5.584631 30.8571,3.405521 z M 80.983571,96.50761 c 7.43533,-2.325621 16.40618,-8.082421 21.392119,-13.727811 4.3228,-4.89455 9.42078,-14.92963 10.6703,-21.00388 3.00208,-14.59394 -1.70134,-30.18231 -12.36167,-40.96983 -9.703699,-9.81949 -20.854679,-14.38489 -35.135059,-14.38489 -14.28038,0 -25.43136,4.5654 -35.13507,14.38489 -5.79467,5.86381 -10.80788,15.01718 -12.36167,22.57057 -3.00208,14.59393 1.70134,30.1823 12.36167,40.96982 13.20043,13.357941 32.16329,17.918201 50.56938,12.161131 z m 596.174939,1.29954 c 18.97936,-4.854101 32.50315,-19.193501 35.63837,-37.787681 1.06082,-6.29142 1.06082,-7.8087 0,-14.10012 -5.38392,-31.93061 -40.6198,-48.7156201 -70.68081,-33.66961 -24.82676,12.42619 -32.97766,43.31897 -17.44179,66.10624 11.32836,16.6159 32.65959,24.521451 52.48423,19.451171 z"
       id="path14960" />
  </g>
</svg>
